<svg version="1.1" id="Layer_1" xmlns="http://www.w3.org/2000/svg" xmlns:xlink="http://www.w3.org/1999/xlink" x="0px" y="0px"
	 width="100%" viewBox="0 0 544 520" enable-background="new 0 0 544 520" xml:space="preserve">
<path fill="#000000" opacity="1.000000" stroke="none" 
	d="
M295.000000,0.999999 
	C378.316040,1.000000 461.632080,1.000000 544.974060,1.000000 
	C544.974060,174.280045 544.974060,347.560089 544.974060,520.920044 
	C363.757629,520.920044 182.515213,520.920044 1.136395,520.920044 
	C1.136395,347.666718 1.136395,174.333389 1.136395,1.000000 
	C80.769424,1.000000 160.419708,1.000000 240.888428,1.305475 
	C240.714905,2.065602 239.765305,2.720082 238.723755,2.940843 
	C233.813324,3.981617 228.877686,4.903562 223.501465,5.919376 
	C209.324051,5.912724 196.929810,11.612119 183.628632,15.121672 
	C168.273285,19.416138 154.229645,25.708660 140.705261,34.075603 
	C140.138992,34.309589 139.943253,34.468388 139.448807,34.704193 
	C134.762619,38.133045 130.401672,41.520344 125.981865,44.828983 
	C118.007286,50.798695 109.997490,56.721352 101.701256,62.782433 
	C100.617126,63.607040 99.834152,64.312874 99.015457,65.009354 
	C98.979744,65.000000 98.960747,65.071358 98.715439,65.135620 
	C98.276512,65.473495 98.082909,65.747116 97.575821,66.126198 
	C86.865364,76.804146 76.468399,87.376640 65.777260,98.124329 
	C56.665173,111.900421 47.847260,125.501320 38.778084,139.333725 
	C33.012997,153.040741 26.008009,166.126694 22.360434,180.089722 
	C17.735611,197.793686 15.534906,216.165161 12.844336,234.331055 
	C9.773455,255.064682 10.859625,275.763824 14.627918,296.371765 
	C17.559721,312.405121 22.148060,327.887909 28.943333,342.709778 
	C29.155851,343.173309 29.217886,343.705811 29.396404,344.381500 
	C29.994097,343.341675 30.419836,342.600983 31.115948,341.389893 
	C38.836037,355.639313 42.637352,371.374573 54.324642,382.640869 
	C41.546440,355.336304 31.819092,327.215698 28.152262,295.920227 
	C29.838182,297.791870 30.679655,298.726074 32.126656,300.332489 
	C32.126656,280.987549 32.126656,262.573700 32.126656,244.159805 
	C33.105518,250.967957 33.196812,257.774750 33.086472,264.578247 
	C32.858349,278.643738 35.443634,292.283447 39.048611,306.165527 
	C39.343094,307.496887 39.676228,308.439392 39.993858,309.746155 
	C48.908638,328.114777 57.838921,346.119080 66.831306,364.471161 
	C77.523247,381.224060 92.801041,394.267914 100.715858,412.738678 
	C103.532166,419.311066 108.432816,425.121826 112.989021,430.792480 
	C126.703430,447.861328 142.879242,462.352783 160.849045,475.319397 
	C161.700424,476.036682 162.394196,476.477905 163.283844,477.195770 
	C178.405899,487.155884 194.049942,495.383911 211.310577,501.156006 
	C213.753525,502.172607 215.877121,503.052673 218.065674,503.719666 
	C231.735916,507.885559 245.327530,512.426208 260.098541,513.114990 
	C260.617249,513.306458 260.843201,513.322327 261.402588,513.534546 
	C266.645172,514.393188 271.537048,515.389832 276.467316,515.645447 
	C285.644073,516.121155 294.843231,516.165405 304.350708,516.307312 
	C304.871613,516.145569 305.074860,516.065857 305.705444,516.028015 
	C319.060059,514.002319 331.987335,511.934692 345.297668,509.908997 
	C346.185608,509.866974 346.690552,509.783081 347.555969,509.692566 
	C359.593262,505.752380 371.270111,501.818787 383.281433,497.974701 
	C384.430481,497.686584 385.245056,497.308960 386.406677,496.836700 
	C387.921967,496.214966 389.134674,495.768036 390.251587,495.148346 
	C401.181458,489.083862 412.095398,482.990570 423.376709,476.945038 
	C437.558075,469.454529 449.674774,459.671844 461.328918,448.806274 
	C471.401123,437.845642 481.141113,426.915894 491.050598,415.688232 
	C502.515564,402.058289 511.641052,387.411499 518.359070,370.952667 
	C522.767578,360.534393 527.230774,350.408417 530.880371,339.997253 
	C539.037903,316.726746 542.026062,292.493347 542.900269,267.997925 
	C543.200134,259.593719 541.922363,251.139740 542.089966,242.722946 
	C542.433594,225.462814 539.407837,208.640594 534.664612,192.292343 
	C530.497864,177.930695 524.346497,164.144867 518.925293,149.806763 
	C517.832153,148.583282 516.885376,147.657745 515.913086,146.389984 
	C511.779755,138.498703 507.944061,130.783829 503.476257,123.454216 
	C500.038849,117.815002 495.806274,112.660492 491.995331,106.919907 
	C491.048950,105.198601 490.034485,103.847832 488.925598,102.196411 
	C482.313324,94.288742 475.795410,86.681717 469.126770,78.769333 
	C468.315979,77.873634 467.655914,77.283318 466.844482,76.410805 
	C458.471741,68.814919 450.250366,61.501217 441.847351,53.901917 
	C441.122589,53.245529 440.579529,52.874741 439.824005,52.268524 
	C428.541809,45.114220 417.472046,38.195343 406.061920,31.050838 
	C405.472229,30.721279 405.222900,30.617350 404.714905,30.311954 
	C392.736053,23.437717 379.697266,20.543604 366.635315,16.740938 
	C354.339142,13.453636 342.292847,10.425398 329.872986,7.258715 
	C328.975677,7.120609 328.451904,7.120949 327.566040,6.954932 
	C316.551819,5.498789 305.899658,4.209002 294.923889,2.599451 
	C294.733521,1.853124 294.866760,1.426562 295.000000,0.999999 
z"/>
<path fill="#FA6934" opacity="1.000000" stroke="none" 
	d="
M223.951050,5.867892 
	C228.877686,4.903562 233.813324,3.981617 238.723755,2.940843 
	C239.765305,2.720082 240.714905,2.065602 241.353439,1.305475 
	C243.041672,1.000000 245.083328,1.000000 247.420380,1.274691 
	C248.143829,1.366254 248.571915,1.183125 249.000000,0.999998 
	C252.361282,1.000000 255.722580,1.000000 259.542603,1.412906 
	C260.012024,2.926860 260.022675,4.027907 260.041382,5.583980 
	C260.046875,22.995474 260.002594,39.952171 260.096191,56.908108 
	C260.107513,58.960232 260.863037,61.008251 261.438202,63.180351 
	C261.812500,63.478943 262.004730,63.672752 261.972748,64.246521 
	C260.244415,65.050758 258.746582,65.740341 257.196777,65.889282 
	C251.778641,66.409958 246.296570,66.437050 240.927185,67.241615 
	C236.248245,67.942719 231.688766,69.440987 226.769913,70.374008 
	C226.000717,68.323280 225.151093,66.488747 225.135941,64.647346 
	C224.999451,48.068371 225.039459,31.488001 224.935684,14.908620 
	C224.923630,12.983352 224.352951,11.061581 224.030975,8.729361 
	C223.997452,7.502985 223.974243,6.685439 223.951050,5.867892 
z"/>
<path fill="#F95F36" opacity="1.000000" stroke="none" 
	d="
M262.179413,63.883957 
	C262.004730,63.672752 261.812500,63.478943 261.342529,62.711605 
	C261.040558,45.214550 261.030182,28.308205 260.916870,11.402552 
	C260.902863,9.309473 260.341187,7.220065 260.033325,5.128956 
	C260.022675,4.027907 260.012024,2.926860 260.000671,1.412906 
	C267.020966,1.000000 274.041901,1.000000 281.669678,1.306871 
	C282.851013,1.409163 283.425507,1.204584 284.000000,1.000003 
	C285.066681,1.000000 286.133331,1.000000 287.872864,1.239128 
	C292.965210,3.043663 293.317108,6.558550 293.067719,10.526165 
	C292.880615,13.502908 292.978149,16.504356 293.074615,19.490747 
	C293.303955,26.591476 293.607849,33.689800 293.915344,41.273029 
	C293.396118,49.604263 292.843140,57.451561 291.829529,65.307327 
	C286.661438,64.633492 281.953949,63.951187 278.077301,63.389301 
	C275.352692,64.181427 273.209076,65.316620 271.073456,65.301712 
	C268.105652,65.280998 265.143799,64.397896 262.179413,63.883957 
z"/>
<path fill="#F98268" opacity="1.000000" stroke="none" 
	d="
M293.881622,40.789093 
	C293.607849,33.689800 293.303955,26.591476 293.074615,19.490747 
	C292.978149,16.504356 292.880615,13.502908 293.067719,10.526165 
	C293.317108,6.558550 292.965210,3.043663 288.272827,1.239128 
	C290.041656,1.000000 292.083344,1.000000 294.562500,0.999999 
	C294.866760,1.426562 294.733521,1.853124 294.624908,2.906745 
	C294.425537,5.157383 294.020294,6.779475 294.006927,8.404784 
	C293.918304,19.199169 293.913605,29.994244 293.881622,40.789093 
z"/>
<path fill="#000000" opacity="1.000000" stroke="none" 
	d="
M283.666656,1.000003 
	C283.425507,1.204584 282.851013,1.409163 282.138245,1.306871 
	C282.444427,1.000000 282.888885,1.000000 283.666656,1.000003 
z"/>
<path fill="#000000" opacity="1.000000" stroke="none" 
	d="
M248.750000,0.999998 
	C248.571915,1.183125 248.143829,1.366254 247.857880,1.274691 
	C248.000000,1.000000 248.500000,1.000000 248.750000,0.999998 
z"/>
<path fill="#FA9032" opacity="1.000000" stroke="none" 
	d="
M160.691437,475.043365 
	C142.879242,462.352783 126.703430,447.861328 112.989021,430.792480 
	C108.432816,425.121826 103.532166,419.311066 100.715858,412.738678 
	C92.801041,394.267914 77.523247,381.224060 67.072716,364.172180 
	C67.504440,362.011353 67.756866,360.497314 68.241409,358.642609 
	C68.649300,356.661560 68.978348,355.021240 68.978836,353.380768 
	C69.003860,270.483704 69.007652,187.586609 68.958534,104.689560 
	C68.957390,102.760986 68.326210,100.832779 67.780846,98.729691 
	C67.072342,98.353035 66.571884,98.151085 66.071434,97.949135 
	C76.468399,87.376640 86.865364,76.804146 97.782654,65.998344 
	C98.591484,65.599457 98.810738,65.368225 98.960747,65.071358 
	C98.960747,65.071358 98.979744,65.000000 99.356621,65.189697 
	C100.157242,67.401947 100.943359,69.423340 100.949821,71.447220 
	C101.033051,97.520477 100.982872,123.594147 101.047508,149.667511 
	C101.052681,151.756668 101.655579,153.844360 102.179222,156.127716 
	C102.879906,156.548630 103.382080,156.774536 103.805313,157.335114 
	C87.160919,186.035202 79.821365,217.229767 76.079224,250.417297 
	C75.156044,248.908417 74.611847,248.395966 74.529518,247.817749 
	C74.208862,245.565704 74.034668,243.292831 73.795700,240.925781 
	C70.130363,244.719666 69.422615,273.767487 72.533302,287.336823 
	C76.860359,281.256958 77.943222,274.451965 78.485489,266.947144 
	C78.953033,260.476379 82.583633,254.234177 84.815804,247.890930 
	C85.253136,248.032806 85.690468,248.174683 86.127792,248.316544 
	C85.987038,250.622864 86.462723,253.195358 85.601219,255.190430 
	C81.364044,265.002960 83.550377,275.488037 82.090630,285.570923 
	C81.992264,286.250336 83.082451,287.106781 83.630150,287.873566 
	C84.358093,288.892639 85.634453,289.848694 85.746391,290.928162 
	C86.839943,301.473663 87.624237,312.051544 88.749687,322.593231 
	C89.223198,327.028381 89.844978,331.544281 91.191376,335.771179 
	C94.919113,347.474182 98.984261,359.072998 103.148781,370.629150 
	C103.640938,371.994843 105.425591,373.164459 106.881340,373.856506 
	C109.823288,375.255066 112.265259,376.396851 110.228912,380.459778 
	C109.567566,381.779297 109.646240,384.427094 110.544037,385.409943 
	C115.170761,390.474915 120.173744,395.196167 125.045418,400.037384 
	C125.481354,399.741058 125.917290,399.444733 126.353226,399.148407 
	C125.357376,396.418427 124.592194,393.575714 123.322975,390.979370 
	C119.313751,382.778046 115.030571,374.710236 111.056435,366.492554 
	C110.168556,364.656586 110.109032,362.419952 109.668144,360.367798 
	C110.124390,360.237854 110.580635,360.107910 111.036880,359.977997 
	C115.604156,369.105774 120.110764,378.264832 124.788307,387.335754 
	C125.759537,389.219147 127.306892,390.824432 128.693497,392.469543 
	C130.176270,394.228729 131.890121,395.798767 133.313400,397.601135 
	C136.319458,401.407867 139.203247,405.311218 142.134521,409.176910 
	C144.099503,411.768250 146.056137,414.365906 148.029022,416.951172 
	C148.196274,417.170319 148.458435,417.316986 148.845154,417.636780 
	C149.864426,417.001068 150.920563,416.342377 151.414398,416.034363 
	C151.302490,411.714325 145.296768,410.243011 147.270752,404.971222 
	C145.854263,403.883331 143.648407,402.634430 142.039398,400.847992 
	C139.684738,398.233765 137.792892,395.207306 135.638107,392.407104 
	C133.830704,390.058350 131.509048,387.998322 130.179550,385.416779 
	C128.639435,382.426239 129.945221,380.731415 131.940308,381.061829 
	C136.880615,386.935028 140.738770,392.019409 145.123322,396.599884 
	C149.889923,401.579468 155.145782,406.090698 160.134796,411.240112 
	C159.719437,416.389313 159.418060,421.110321 158.974792,425.817902 
	C158.671661,429.037109 158.170670,432.237640 157.400269,435.383972 
	C155.354156,435.438721 153.665909,435.556091 151.426483,435.711792 
	C152.267014,437.040588 152.561340,437.833099 153.118576,438.331879 
	C155.998215,440.909271 158.945145,443.411499 161.895493,446.411682 
	C161.942673,454.586334 162.038895,462.290375 161.923935,469.991302 
	C161.898697,471.681061 161.122055,473.359650 160.691437,475.043365 
M129.671921,404.061401 
	C129.419952,405.699371 129.167969,407.337311 128.835098,409.501129 
	C132.067413,411.994385 135.732727,414.821655 139.398056,417.648926 
	C139.686859,417.330963 139.975662,417.013031 140.264450,416.695068 
	C135.611145,413.470306 136.275604,406.319794 129.671921,404.061401 
M110.006065,391.571167 
	C109.907661,390.968445 109.809258,390.365723 109.710846,389.762970 
	C109.569160,389.776093 109.427467,389.789185 109.285782,389.802277 
	C109.285782,399.908173 109.285782,410.014069 109.285782,420.119965 
	C109.527855,420.120667 109.769920,420.121368 110.011993,420.122070 
	C110.011993,410.860382 110.011993,401.598663 110.006065,391.571167 
z"/>
<path fill="#F72C3B" opacity="1.000000" stroke="none" 
	d="
M469.277527,79.074699 
	C475.795410,86.681717 482.313324,94.288742 488.912842,102.698792 
	C488.997223,205.792084 488.993652,308.082336 489.051605,410.372589 
	C489.052673,412.265533 489.784943,414.158081 490.352295,416.034485 
	C490.528503,416.018127 490.881042,415.986084 490.881042,415.986084 
	C481.141113,426.915894 471.401123,437.845642 461.326172,448.384491 
	C460.645447,435.614227 460.299713,423.234924 459.945312,410.402069 
	C459.974579,394.959686 460.012543,379.970825 460.282654,364.749207 
	C461.978607,362.455505 463.442352,360.394531 464.906128,358.333557 
	C464.366150,358.389709 463.826172,358.445892 463.286194,358.502075 
	C462.272339,357.055542 460.387024,355.611023 460.383606,354.162109 
	C460.358124,343.364868 460.705505,332.566772 461.112244,321.470978 
	C461.804749,320.530548 462.683197,319.939056 462.781830,319.237823 
	C463.917694,311.163300 469.015259,303.912994 467.713593,295.305786 
	C467.539886,294.156982 468.381165,292.850555 468.768127,291.622040 
	C469.435486,289.503235 470.698395,287.387512 470.695770,285.271759 
	C470.677612,270.670715 470.352600,256.070312 470.241058,241.468811 
	C470.221222,238.870743 470.737000,236.268570 471.008453,233.639130 
	C469.756744,232.958298 468.507019,232.278534 467.257263,231.598785 
	C467.624939,231.426117 467.992584,231.253448 468.360260,231.080780 
	C467.533325,227.736282 466.706421,224.391769 466.088013,220.834229 
	C466.532196,220.080734 466.767853,219.540283 467.232269,218.654572 
	C467.642578,216.173599 467.980927,214.038010 467.982544,211.902176 
	C468.013977,170.001816 467.985535,128.101395 468.060760,86.201141 
	C468.065002,83.824936 468.853851,81.450150 469.277527,79.074699 
z"/>
<path fill="#F6253C" opacity="1.000000" stroke="none" 
	d="
M491.050568,415.688232 
	C490.881042,415.986084 490.528503,416.018127 490.305908,415.561707 
	C490.055542,414.107422 490.003479,413.109589 490.003448,412.111755 
	C489.999084,311.933472 489.998413,211.755157 490.001556,111.576866 
	C490.001587,110.413002 489.900208,109.212074 490.166077,108.105293 
	C490.259766,107.715187 491.312439,107.555412 491.927246,107.290459 
	C495.806274,112.660492 500.038849,117.815002 503.476257,123.454216 
	C507.944061,130.783829 511.779755,138.498703 515.927002,146.884689 
	C515.980469,218.698807 515.984863,289.675995 516.049316,360.653137 
	C516.051575,363.080475 516.657166,365.507263 517.118164,368.242188 
	C517.518005,369.405243 517.781250,370.260406 518.044495,371.115540 
	C511.641052,387.411499 502.515564,402.058289 491.050568,415.688232 
z"/>
<path fill="#FB8532" opacity="1.000000" stroke="none" 
	d="
M103.884254,157.000443 
	C103.382080,156.774536 102.879906,156.548630 102.183640,155.666412 
	C101.993835,124.227966 101.998123,93.445816 102.002411,62.663666 
	C109.997490,56.721352 118.007286,50.798695 125.981865,44.828983 
	C130.401672,41.520344 134.762619,38.133045 139.522583,35.116516 
	C139.895050,60.032883 139.895050,84.613937 139.895050,109.194984 
	C140.288635,109.195137 140.682220,109.195290 141.075806,109.195442 
	C141.075806,84.130440 141.075806,59.065430 141.075806,34.000420 
	C154.229645,25.708660 168.273285,19.416138 183.626633,15.456245 
	C183.999054,16.130531 183.998398,16.576580 184.004913,17.489014 
	C184.038635,27.429388 183.991425,36.904419 184.125900,46.376877 
	C184.184296,50.489044 184.616516,54.595909 184.904602,59.191696 
	C184.952667,65.660950 185.278519,71.665276 184.855042,77.616280 
	C184.673996,80.160439 182.783798,82.546089 181.962982,85.097931 
	C181.580917,86.285683 181.896713,87.697899 181.899506,89.298859 
	C181.843094,89.773773 181.783371,89.958206 181.579773,90.292343 
	C181.307907,90.831459 181.179947,91.220856 180.827942,91.888641 
	C179.146042,92.097229 177.688171,92.027428 176.230301,91.957634 
	C174.296661,91.814308 172.272705,92.637268 170.491653,93.824615 
	C168.159317,95.379463 164.242554,97.123634 164.140793,98.960022 
	C163.873871,103.776718 160.025879,103.610435 157.850632,103.820557 
	C149.739822,104.603996 145.956589,110.891853 141.076324,115.801010 
	C139.213821,117.674545 137.794510,119.984711 136.138153,122.068016 
	C132.966049,126.057747 129.768829,130.027542 126.186729,134.499069 
	C125.664604,132.095596 125.314598,130.484421 124.705238,127.679337 
	C117.317566,138.083008 110.600906,147.541718 103.884254,157.000443 
z"/>
<path fill="#FD9B2F" opacity="1.000000" stroke="none" 
	d="
M65.777260,98.124329 
	C66.571884,98.151085 67.072342,98.353035 67.786148,99.209518 
	C68.002769,186.237106 68.006027,272.610168 68.009277,358.983246 
	C67.756866,360.497314 67.504440,362.011353 67.010612,363.824402 
	C57.838921,346.119080 48.908638,328.114777 40.060326,309.300049 
	C40.429081,306.024963 40.963833,303.560547 40.966133,301.095642 
	C41.014465,249.347305 41.012760,197.598892 40.963150,145.850555 
	C40.961300,143.919357 40.378410,141.988708 39.876862,139.917236 
	C39.445763,139.573639 39.226402,139.348816 39.029350,139.102219 
	C47.847260,125.501320 56.665173,111.900421 65.777260,98.124329 
z"/>
<path fill="#F8A031" opacity="1.000000" stroke="none" 
	d="
M38.778084,139.333725 
	C39.226402,139.348816 39.445763,139.573639 39.855553,140.378998 
	C40.016846,193.645554 40.021389,246.309799 39.964443,298.973999 
	C39.961990,301.241821 39.392567,303.509094 39.087257,305.776611 
	C35.443634,292.283447 32.858349,278.643738 33.086472,264.578247 
	C33.196812,257.774750 33.105518,250.967957 32.126656,244.159805 
	C32.126656,262.573700 32.126656,280.987549 32.126656,300.332489 
	C30.679655,298.726074 29.838182,297.791870 28.152262,295.920227 
	C31.819092,327.215698 41.546440,355.336304 54.324642,382.640869 
	C42.637352,371.374573 38.836037,355.639313 31.115948,341.389893 
	C30.419836,342.600983 29.994097,343.341675 29.396404,344.381500 
	C29.217886,343.705811 29.155851,343.173309 28.943333,342.709778 
	C22.148060,327.887909 17.559721,312.405121 14.627918,296.371765 
	C10.859625,275.763824 9.773455,255.064682 12.844336,234.331055 
	C15.534906,216.165161 17.735611,197.793686 22.360434,180.089722 
	C26.008009,166.126694 33.012997,153.040741 38.778084,139.333725 
z"/>
<path fill="#F51F3D" opacity="1.000000" stroke="none" 
	d="
M518.359070,370.952667 
	C517.781250,370.260406 517.518005,369.405243 517.118774,367.780640 
	C516.984497,347.182129 516.987610,327.353058 516.987915,307.523956 
	C516.988708,257.201416 516.962463,206.878799 517.076477,156.556519 
	C517.081360,154.404419 518.377258,152.255234 519.071716,150.104706 
	C524.346497,164.144867 530.497864,177.930695 534.664612,192.292343 
	C539.407837,208.640594 542.433594,225.462814 542.089966,242.722946 
	C541.922363,251.139740 543.200134,259.593719 542.900269,267.997925 
	C542.026062,292.493347 539.037903,316.726746 530.880371,339.997253 
	C527.230774,350.408417 522.767578,360.534393 518.359070,370.952667 
z"/>
<path fill="#F3373C" opacity="1.000000" stroke="none" 
	d="
M460.935944,321.768921 
	C460.705505,332.566772 460.358124,343.364868 460.383606,354.162109 
	C460.387024,355.611023 462.272339,357.055542 463.286194,358.502075 
	C463.826172,358.445892 464.366150,358.389709 464.906128,358.333557 
	C463.442352,360.394531 461.978607,362.455505 460.035767,365.087341 
	C459.372375,366.796722 459.029633,367.935028 459.028015,369.073792 
	C459.010254,381.560669 459.017181,394.047821 459.105438,406.534271 
	C459.115631,407.976624 459.658234,409.415253 459.953979,410.855591 
	C460.299713,423.234924 460.645447,435.614227 460.993927,448.415344 
	C449.674774,459.671844 437.558075,469.454529 423.371918,476.482849 
	C422.991913,469.611511 422.979553,463.241913 422.958923,456.417053 
	C422.971741,443.519073 423.043304,431.076080 422.959778,418.634094 
	C422.947144,416.747620 422.213593,414.865967 421.556763,412.977417 
	C420.957855,412.962158 420.615692,412.951538 420.470032,412.690765 
	C427.887146,406.145966 435.929596,400.524323 438.500916,390.275421 
	C435.010895,391.980103 432.334869,394.563446 429.350220,396.719635 
	C418.628693,404.465118 407.856323,412.143646 396.970093,419.654602 
	C394.872559,421.101776 392.174500,421.678558 389.753510,422.656891 
	C395.904175,416.994843 402.004761,411.370483 409.166168,408.000397 
	C416.721039,404.445099 421.080933,398.009003 426.814972,392.814087 
	C429.703735,390.196930 432.442413,387.405731 435.140991,384.589722 
	C437.069611,382.577209 438.943848,380.484772 440.592285,378.243988 
	C441.362549,377.196930 441.541107,375.714569 441.987854,374.429504 
	C441.485413,374.256927 440.982971,374.084351 440.480530,373.911774 
	C437.875214,376.349823 435.269928,378.787842 432.578613,381.306366 
	C432.035339,380.216675 431.691986,379.528015 431.005859,378.151794 
	C430.272552,380.202271 429.779816,381.700989 429.198212,383.164337 
	C428.805756,384.151764 428.216553,385.951355 427.836945,385.919952 
	C422.195282,385.452454 421.236389,390.663849 418.457550,393.547363 
	C415.930023,396.170135 413.765991,399.154144 408.945709,398.887787 
	C409.074036,397.290497 408.652985,395.454620 409.373138,394.680725 
	C415.481384,388.116364 422.245972,382.114685 427.927368,375.214508 
	C433.812805,368.066528 438.833862,360.187683 444.004181,352.475098 
	C449.888153,343.697968 456.756134,335.391907 458.236908,324.327332 
	C458.364868,323.371246 460.000580,322.616943 460.935944,321.768921 
M449.046265,380.559631 
	C450.518616,378.149780 451.990936,375.739960 453.463257,373.330139 
	C453.113281,373.113953 452.763336,372.897797 452.413361,372.681610 
	C448.901489,376.854736 445.389618,381.027863 441.877747,385.201019 
	C442.232513,385.548676 442.587311,385.896332 442.942108,386.243988 
	C444.845154,384.545502 446.748169,382.847015 449.046265,380.559631 
M461.471069,360.497070 
	C461.471069,360.497070 461.511993,360.481476 461.471069,360.497070 
z"/>
<path fill="#F6363B" opacity="1.000000" stroke="none" 
	d="
M467.003540,218.999832 
	C466.767853,219.540283 466.532196,220.080734 465.762665,220.659180 
	C465.111755,218.159271 464.954529,215.622314 464.894989,213.083069 
	C464.866302,211.861526 465.445221,210.461594 465.025177,209.440125 
	C462.382050,203.012772 459.503571,196.682648 456.784607,190.285660 
	C456.274872,189.086441 455.861938,187.728806 455.869232,186.446915 
	C455.905060,180.165283 455.927582,173.933258 450.605194,169.261734 
	C450.038147,169.588928 449.206604,170.068771 447.954590,170.791260 
	C448.276886,168.581772 448.509064,166.989944 448.740356,165.404388 
	C447.218475,164.831726 445.894348,164.333450 444.821136,163.929626 
	C445.122620,162.063400 445.993988,160.294769 445.495483,159.095535 
	C443.803802,155.025681 441.627838,151.157120 439.729675,146.996521 
	C439.822540,146.781372 440.001190,146.348114 440.223663,145.957626 
	C440.634338,143.599686 440.983704,141.632477 440.986420,139.664764 
	C441.022705,113.245758 440.987854,86.826630 441.054626,60.407745 
	C441.059875,58.333534 441.689545,56.260895 442.028992,54.187523 
	C450.250366,61.501217 458.471741,68.814919 466.833008,76.904083 
	C466.983093,124.786308 466.993317,171.893066 467.003540,218.999832 
z"/>
<path fill="#F83B3B" opacity="1.000000" stroke="none" 
	d="
M440.001190,146.348114 
	C440.001190,146.348114 439.822540,146.781372 439.468811,146.814026 
	C430.980438,136.606476 422.879883,126.338852 414.670349,116.159142 
	C413.583405,114.811340 411.865662,113.992340 410.573273,112.785782 
	C408.278748,110.643738 406.086334,108.392387 404.084473,105.957703 
	C404.868134,104.792068 405.418579,103.855507 405.959900,102.457901 
	C405.964661,91.865921 405.933899,81.734695 406.003296,71.604149 
	C406.095428,58.161304 406.265656,44.718998 406.402283,31.276463 
	C417.472046,38.195343 428.541809,45.114220 439.815247,52.769890 
	C440.013031,84.453827 440.007111,115.400970 440.001190,146.348114 
z"/>
<path fill="#F8413A" opacity="1.000000" stroke="none" 
	d="
M405.968994,102.918945 
	C405.418579,103.855507 404.868134,104.792068 403.779358,105.795486 
	C401.893433,104.908737 400.623871,103.813049 399.186066,103.023987 
	C387.475372,96.597321 375.733215,90.227989 364.203674,83.647873 
	C364.913361,82.912827 365.420074,82.371117 365.934814,81.377136 
	C366.008026,59.683411 366.073151,38.441971 366.324890,17.149956 
	C366.511475,17.099380 366.885132,17.000002 366.885132,17.000002 
	C379.697266,20.543604 392.736053,23.437717 404.709045,30.813406 
	C404.990234,53.397129 404.995819,75.278030 405.086731,97.158577 
	C405.094727,99.079887 405.661682,100.998878 405.968994,102.918945 
z"/>
<path fill="#FA7334" opacity="1.000000" stroke="none" 
	d="
M181.896179,89.008369 
	C181.896713,87.697899 181.580917,86.285683 181.962982,85.097931 
	C182.783798,82.546089 184.673996,80.160439 184.855042,77.616280 
	C185.278519,71.665276 184.952667,65.660950 184.899933,58.756996 
	C184.894470,46.135807 184.962128,34.435604 184.901260,22.736069 
	C184.891357,20.830074 184.313232,18.927032 183.997742,17.022629 
	C183.998398,16.576580 183.999054,16.130531 184.001709,15.349909 
	C196.929810,11.612119 209.324051,5.912724 223.501465,5.919376 
	C223.974243,6.685439 223.997452,7.502985 224.031754,9.182722 
	C223.984634,30.328077 223.926407,50.611244 223.545380,71.056030 
	C213.385925,74.805038 203.533295,78.349754 193.730209,82.026627 
	C192.287918,82.567596 190.339737,83.463806 189.900040,84.662933 
	C188.424103,88.688187 185.360886,89.050537 181.896179,89.008369 
z"/>
<path fill="#F96935" opacity="1.000000" stroke="none" 
	d="
M259.805786,512.939331 
	C245.327530,512.426208 231.735916,507.885559 218.065674,503.719666 
	C215.877121,503.052673 213.753525,502.172607 211.401901,500.787231 
	C211.802338,497.496490 212.784653,494.828705 212.919800,492.118713 
	C213.207321,486.354004 213.054520,480.567291 213.469223,474.768616 
	C216.449738,475.483582 219.043243,476.219513 222.271347,477.135529 
	C218.375076,470.109863 211.810699,468.511749 206.153870,465.459351 
	C206.549896,462.978424 206.668732,460.840210 207.020264,458.740906 
	C207.684418,454.774811 208.482361,450.831116 209.589188,446.895325 
	C217.213989,449.809235 224.292084,453.366119 231.781326,455.433411 
	C240.882324,457.945618 250.329956,459.202087 259.700928,461.464844 
	C259.784729,478.931702 259.795258,495.935516 259.805786,512.939331 
z"/>
<path fill="#F84F38" opacity="1.000000" stroke="none" 
	d="
M365.926758,81.829407 
	C365.420074,82.371117 364.913361,82.912827 363.840027,83.628128 
	C348.391235,78.916046 333.509064,74.030388 317.755249,68.858574 
	C321.073273,68.526237 323.612701,68.271889 326.421692,68.063179 
	C327.448212,66.034180 328.205139,63.959538 328.952820,61.427635 
	C328.983673,45.174549 328.981323,29.378363 329.115601,13.583341 
	C329.133179,11.518226 329.852325,9.459076 330.246521,7.397161 
	C342.292847,10.425398 354.339142,13.453636 366.635315,16.740938 
	C366.885132,17.000002 366.511475,17.099380 366.000732,17.399487 
	C365.310150,18.668783 364.973785,19.637930 364.973541,20.607166 
	C364.968506,39.748829 364.985535,58.890579 365.066772,78.032021 
	C365.072144,79.299011 365.627289,80.563667 365.926758,81.829407 
z"/>
<path fill="#F95F36" opacity="1.000000" stroke="none" 
	d="
M304.033020,516.389343 
	C294.843231,516.165405 285.644073,516.121155 276.467316,515.645447 
	C271.537048,515.389832 266.645172,514.393188 261.401367,513.042542 
	C261.145752,495.253723 261.224731,478.153320 261.739990,460.985474 
	C267.143524,461.058594 272.130981,461.530792 277.071411,461.230255 
	C280.731964,461.007568 284.303802,459.329041 287.964478,459.105164 
	C293.622009,458.759125 299.321625,459.101654 304.864197,459.427063 
	C304.486542,460.482697 304.248077,461.263397 304.014038,462.508057 
	C304.023346,480.777802 304.028168,498.583588 304.033020,516.389343 
z"/>
<path fill="#F8413A" opacity="1.000000" stroke="none" 
	d="
M422.967163,456.872314 
	C422.979553,463.241913 422.991913,469.611511 423.009094,476.443298 
	C412.095398,482.990570 401.181458,489.083862 390.251587,495.148346 
	C389.134674,495.768036 387.921967,496.214966 386.165955,496.502258 
	C385.377625,484.203247 385.177094,472.144012 384.980957,459.631104 
	C384.662445,451.495880 384.339539,443.814362 384.297943,435.913849 
	C396.189911,430.330566 408.068970,425.406952 416.471069,415.038422 
	C417.315460,413.996399 418.986267,413.624054 420.273560,412.940918 
	C420.615692,412.951538 420.957855,412.962158 421.611542,413.445496 
	C421.965302,426.313690 421.969177,438.709534 422.089905,451.104279 
	C422.108673,453.029633 422.661377,454.949768 422.967163,456.872314 
z"/>
<path fill="#F95837" opacity="1.000000" stroke="none" 
	d="
M304.009613,462.044067 
	C304.248077,461.263397 304.486542,460.482697 305.316467,459.362396 
	C309.650757,459.022766 313.393646,459.022766 317.136505,459.022766 
	C317.116119,458.428406 317.095734,457.834045 317.075348,457.239685 
	C315.968750,457.239685 314.862152,457.239685 313.755554,457.239685 
	C313.711060,456.879913 313.666565,456.520142 313.622070,456.160370 
	C323.673889,454.449127 333.725739,452.737885 344.068359,451.327759 
	C344.572540,452.922638 344.970581,454.216339 344.971497,455.510284 
	C344.984283,473.629211 344.942871,491.748169 344.914642,509.867126 
	C331.987335,511.934692 319.060059,514.002319 305.644440,515.564026 
	C305.106232,499.470520 305.092773,483.882629 304.963226,468.295715 
	C304.945862,466.209320 304.341888,464.127838 304.009613,462.044067 
z"/>
<path fill="#F84F38" opacity="1.000000" stroke="none" 
	d="
M384.016663,436.132874 
	C384.339539,443.814362 384.662445,451.495880 384.772064,459.974548 
	C384.370514,470.545135 384.243713,480.320435 383.952972,490.090820 
	C383.875427,492.696625 383.295990,495.287445 382.946960,497.885162 
	C371.270111,501.818787 359.593262,505.752380 347.301086,509.369690 
	C346.486145,508.427307 346.110901,507.800812 346.112488,507.175201 
	C346.160248,488.091278 346.245087,469.007446 346.564209,449.682373 
	C347.608307,449.252411 348.409821,449.051910 349.216766,448.876770 
	C354.370117,447.758392 360.616180,448.087402 364.428925,445.200958 
	C370.498932,440.605438 377.425354,438.966492 384.016663,436.132874 
z"/>
<path fill="#F95837" opacity="1.000000" stroke="none" 
	d="
M328.962036,61.884895 
	C328.205139,63.959538 327.448212,66.034180 326.324951,67.696564 
	C324.967712,66.183067 314.325745,63.827610 313.608215,64.793602 
	C310.911041,68.424728 308.226471,66.727554 305.385742,65.150841 
	C303.516449,64.113289 301.547058,63.256050 299.451202,62.234604 
	C297.728210,64.990089 295.839966,67.288841 292.290161,65.298859 
	C292.843140,57.451561 293.396118,49.604263 293.915344,41.273029 
	C293.913605,29.994244 293.918304,19.199169 294.006927,8.404784 
	C294.020294,6.779475 294.425537,5.157383 294.948547,3.226509 
	C305.899658,4.209002 316.551819,5.498789 327.569702,7.415930 
	C327.973297,24.071381 327.980927,40.099678 328.088593,56.127312 
	C328.101471,58.048374 328.657684,59.965790 328.962036,61.884895 
z"/>
<path fill="#F87335" opacity="1.000000" stroke="none" 
	d="
M213.082199,474.789612 
	C213.054520,480.567291 213.207321,486.354004 212.919800,492.118713 
	C212.784653,494.828705 211.802338,497.496490 211.112579,500.552155 
	C194.049942,495.383911 178.405899,487.155884 163.255234,476.731720 
	C163.025909,468.491180 162.924911,460.989258 163.084518,453.492920 
	C163.123917,451.642853 164.010696,449.810852 164.814865,448.027100 
	C176.948425,455.146606 188.708023,462.325836 200.639816,469.206451 
	C204.557663,471.465668 208.922028,472.950623 213.082199,474.789612 
z"/>
<path fill="#F74F61" opacity="1.000000" stroke="none" 
	d="
M491.995331,106.919922 
	C491.312439,107.555412 490.259766,107.715187 490.166077,108.105293 
	C489.900208,109.212074 490.001587,110.413002 490.001556,111.576866 
	C489.998413,211.755157 489.999084,311.933472 490.003448,412.111755 
	C490.003479,413.109589 490.055542,414.107422 490.129700,415.578033 
	C489.784943,414.158081 489.052673,412.265533 489.051605,410.372589 
	C488.993652,308.082336 488.997223,205.792084 489.007263,102.999435 
	C490.034485,103.847832 491.048950,105.198601 491.995331,106.919922 
z"/>
<path fill="#F74F61" opacity="1.000000" stroke="none" 
	d="
M518.925293,149.806763 
	C518.377258,152.255234 517.081360,154.404419 517.076477,156.556519 
	C516.962463,206.878799 516.988708,257.201416 516.987915,307.523956 
	C516.987610,327.353058 516.984497,347.182129 516.982117,367.472778 
	C516.657166,365.507263 516.051575,363.080475 516.049316,360.653137 
	C515.984863,289.675995 515.980469,218.698807 515.952576,147.226913 
	C516.885376,147.657745 517.832153,148.583282 518.925293,149.806763 
z"/>
<path fill="#FDA957" opacity="1.000000" stroke="none" 
	d="
M39.048611,306.165527 
	C39.392567,303.509094 39.961990,301.241821 39.964443,298.973999 
	C40.021389,246.309799 40.016846,193.645554 40.044983,140.519562 
	C40.378410,141.988708 40.961300,143.919357 40.963150,145.850555 
	C41.012760,197.598892 41.014465,249.347305 40.966133,301.095642 
	C40.963833,303.560547 40.429081,306.024963 40.075825,308.935730 
	C39.676228,308.439392 39.343094,307.496887 39.048611,306.165527 
z"/>
<path fill="#F74F61" opacity="1.000000" stroke="none" 
	d="
M467.232269,218.654572 
	C466.993317,171.893066 466.983093,124.786308 466.984375,77.186264 
	C467.655914,77.283318 468.315979,77.873634 469.126770,78.769333 
	C468.853851,81.450150 468.065002,83.824936 468.060760,86.201141 
	C467.985535,128.101395 468.013977,170.001816 467.982544,211.902176 
	C467.980927,214.038010 467.642578,216.173599 467.232269,218.654572 
z"/>
<path fill="#FDA957" opacity="1.000000" stroke="none" 
	d="
M101.701256,62.782436 
	C101.998123,93.445816 101.993835,124.227966 101.985123,155.471420 
	C101.655579,153.844360 101.052681,151.756668 101.047508,149.667511 
	C100.982872,123.594147 101.033051,97.520477 100.949821,71.447220 
	C100.943359,69.423340 100.157242,67.401947 99.392334,65.199051 
	C99.834152,64.312874 100.617126,63.607040 101.701256,62.782436 
z"/>
<path fill="#F74F61" opacity="1.000000" stroke="none" 
	d="
M440.223663,145.957626 
	C440.007111,115.400970 440.013031,84.453827 440.027710,53.005318 
	C440.579529,52.874741 441.122589,53.245529 441.847351,53.901917 
	C441.689545,56.260895 441.059875,58.333534 441.054626,60.407745 
	C440.987854,86.826630 441.022705,113.245758 440.986420,139.664764 
	C440.983704,141.632477 440.634338,143.599686 440.223663,145.957626 
z"/>
<path fill="#FDA957" opacity="1.000000" stroke="none" 
	d="
M140.705261,34.075603 
	C141.075806,59.065430 141.075806,84.130440 141.075806,109.195442 
	C140.682220,109.195290 140.288635,109.195137 139.895050,109.194984 
	C139.895050,84.613937 139.895050,60.032883 139.821289,35.039509 
	C139.943253,34.468388 140.138992,34.309589 140.705261,34.075603 
z"/>
<path fill="#F98268" opacity="1.000000" stroke="none" 
	d="
M405.959930,102.457901 
	C405.661682,100.998878 405.094727,99.079887 405.086731,97.158577 
	C404.995819,75.278030 404.990234,53.397129 404.967712,31.014870 
	C405.222900,30.617350 405.472229,30.721279 406.061951,31.050833 
	C406.265656,44.718998 406.095428,58.161304 406.003296,71.604149 
	C405.933899,81.734695 405.964661,91.865921 405.959930,102.457901 
z"/>
<path fill="#F98268" opacity="1.000000" stroke="none" 
	d="
M346.324097,449.923584 
	C346.245087,469.007446 346.160248,488.091278 346.112488,507.175201 
	C346.110901,507.800812 346.486145,508.427307 346.940613,509.376282 
	C346.690552,509.783081 346.185608,509.866974 345.297668,509.908997 
	C344.942871,491.748169 344.984283,473.629211 344.971497,455.510284 
	C344.970581,454.216339 344.572540,452.922638 344.286652,451.033783 
	C344.917450,450.266998 345.620758,450.095276 346.324097,449.923584 
z"/>
<path fill="#F98268" opacity="1.000000" stroke="none" 
	d="
M328.952789,61.427635 
	C328.657684,59.965790 328.101471,58.048374 328.088593,56.127312 
	C327.980927,40.099678 327.973297,24.071381 327.931793,7.582285 
	C328.451904,7.120949 328.975677,7.120609 329.872986,7.258717 
	C329.852325,9.459076 329.133179,11.518226 329.115601,13.583341 
	C328.981323,29.378363 328.983673,45.174549 328.952789,61.427635 
z"/>
<path fill="#F98268" opacity="1.000000" stroke="none" 
	d="
M304.014038,462.508057 
	C304.341888,464.127838 304.945862,466.209320 304.963226,468.295715 
	C305.092773,483.882629 305.106232,499.470520 305.217102,515.522095 
	C305.074860,516.065857 304.871613,516.145569 304.350708,516.307312 
	C304.028168,498.583588 304.023346,480.777802 304.014038,462.508057 
z"/>
<path fill="#F98268" opacity="1.000000" stroke="none" 
	d="
M261.303711,461.052917 
	C261.224731,478.153320 261.145752,495.253723 261.067993,512.846130 
	C260.843201,513.322327 260.617249,513.306458 260.098541,513.114990 
	C259.795258,495.935516 259.784729,478.931702 260.124695,461.372192 
	C260.751373,460.895325 261.027557,460.974121 261.303711,461.052917 
z"/>
<path fill="#F74F61" opacity="1.000000" stroke="none" 
	d="
M383.281433,497.974701 
	C383.295990,495.287445 383.875427,492.696625 383.952972,490.090820 
	C384.243713,480.320435 384.370514,470.545135 384.767670,460.428253 
	C385.177094,472.144012 385.377625,484.203247 385.818909,496.596893 
	C385.245056,497.308960 384.430481,497.686584 383.281433,497.974701 
z"/>
<path fill="#FDA957" opacity="1.000000" stroke="none" 
	d="
M164.507935,447.970551 
	C164.010696,449.810852 163.123917,451.642853 163.084518,453.492920 
	C162.924911,460.989258 163.025909,468.491180 163.059357,476.455078 
	C162.394196,476.477905 161.700424,476.036682 160.849045,475.319397 
	C161.122055,473.359650 161.898697,471.681061 161.923935,469.991302 
	C162.038895,462.290375 161.942673,454.586334 162.205399,446.548218 
	C163.161591,446.798920 163.834763,447.384735 164.507935,447.970551 
z"/>
<path fill="#FDA957" opacity="1.000000" stroke="none" 
	d="
M98.715439,65.135620 
	C98.810738,65.368225 98.591484,65.599457 98.096146,65.892891 
	C98.082909,65.747116 98.276512,65.473495 98.715439,65.135620 
z"/>
<path fill="#020101" opacity="1.000000" stroke="none" 
	d="
M261.739990,460.985474 
	C261.027557,460.974121 260.751373,460.895325 260.051422,460.909180 
	C250.329956,459.202087 240.882324,457.945618 231.781326,455.433411 
	C224.292084,453.366119 217.213989,449.809235 209.341858,446.612640 
	C204.839432,445.598419 201.444672,444.285858 199.628021,440.269318 
	C199.184586,439.288910 197.632034,438.389099 196.476395,438.218658 
	C187.433197,436.884979 182.326889,429.370728 175.469086,424.713074 
	C169.828812,420.882385 165.242020,415.500519 160.188324,410.806152 
	C155.145782,406.090698 149.889923,401.579468 145.123322,396.599884 
	C140.738770,392.019409 136.880615,386.935028 131.940308,381.061829 
	C129.945221,380.731415 128.639435,382.426239 130.179550,385.416779 
	C131.509048,387.998322 133.830704,390.058350 135.638107,392.407104 
	C137.792892,395.207306 139.684738,398.233765 142.039398,400.847992 
	C143.648407,402.634430 145.854263,403.883331 147.270752,404.971222 
	C145.296768,410.243011 151.302490,411.714325 151.414398,416.034363 
	C150.920563,416.342377 149.864426,417.001068 148.845154,417.636780 
	C148.458435,417.316986 148.196274,417.170319 148.029022,416.951172 
	C146.056137,414.365906 144.099503,411.768250 142.134521,409.176910 
	C139.203247,405.311218 136.319458,401.407867 133.313400,397.601135 
	C131.890121,395.798767 130.176270,394.228729 128.693497,392.469543 
	C127.306892,390.824432 125.759537,389.219147 124.788307,387.335754 
	C120.110764,378.264832 115.604156,369.105774 111.036880,359.977997 
	C110.580635,360.107910 110.124390,360.237854 109.668144,360.367798 
	C110.109032,362.419952 110.168556,364.656586 111.056435,366.492554 
	C115.030571,374.710236 119.313751,382.778046 123.322975,390.979370 
	C124.592194,393.575714 125.357376,396.418427 126.353226,399.148407 
	C125.917290,399.444733 125.481354,399.741058 125.045418,400.037384 
	C120.173744,395.196167 115.170761,390.474915 110.544037,385.409943 
	C109.646240,384.427094 109.567566,381.779297 110.228912,380.459778 
	C112.265259,376.396851 109.823288,375.255066 106.881340,373.856506 
	C105.425591,373.164459 103.640938,371.994843 103.148781,370.629150 
	C98.984261,359.072998 94.919113,347.474182 91.191376,335.771179 
	C89.844978,331.544281 89.223198,327.028381 88.749687,322.593231 
	C87.624237,312.051544 86.839943,301.473663 85.746391,290.928162 
	C85.634453,289.848694 84.358093,288.892639 83.630150,287.873566 
	C83.082451,287.106781 81.992264,286.250336 82.090630,285.570923 
	C83.550377,275.488037 81.364044,265.002960 85.601219,255.190430 
	C86.462723,253.195358 85.987038,250.622864 86.127792,248.316544 
	C85.690468,248.174683 85.253136,248.032806 84.815804,247.890930 
	C82.583633,254.234177 78.953033,260.476379 78.485489,266.947144 
	C77.943222,274.451965 76.860359,281.256958 72.533302,287.336823 
	C69.422615,273.767487 70.130363,244.719666 73.795700,240.925781 
	C74.034668,243.292831 74.208862,245.565704 74.529518,247.817749 
	C74.611847,248.395966 75.156044,248.908417 76.079224,250.417297 
	C79.821365,217.229767 87.160919,186.035202 103.805313,157.335114 
	C110.600906,147.541718 117.317566,138.083008 124.705238,127.679337 
	C125.314598,130.484421 125.664604,132.095596 126.186729,134.499069 
	C129.768829,130.027542 132.966049,126.057747 136.138153,122.068016 
	C137.794510,119.984711 139.213821,117.674545 141.076324,115.801010 
	C145.956589,110.891853 149.739822,104.603996 157.850632,103.820557 
	C160.025879,103.610435 163.873871,103.776718 164.140793,98.960022 
	C164.242554,97.123634 168.159317,95.379463 170.491653,93.824615 
	C172.272705,92.637268 174.296661,91.814308 176.230301,91.957634 
	C177.688171,92.027428 179.146042,92.097229 181.035736,91.794189 
	C181.552917,90.995110 181.638290,90.568871 181.723663,90.142632 
	C181.783371,89.958206 181.843094,89.773773 181.899506,89.298859 
	C185.360886,89.050537 188.424103,88.688187 189.900040,84.662933 
	C190.339737,83.463806 192.287918,82.567596 193.730209,82.026627 
	C203.533295,78.349754 213.385925,74.805038 223.951599,71.099350 
	C225.479263,70.849709 226.277878,70.718361 227.076492,70.587021 
	C231.688766,69.440987 236.248245,67.942719 240.927185,67.241615 
	C246.296570,66.437050 251.778641,66.409958 257.196777,65.889282 
	C258.746582,65.740341 260.244415,65.050758 261.972748,64.246521 
	C265.143799,64.397896 268.105652,65.280998 271.073456,65.301712 
	C273.209076,65.316620 275.352692,64.181427 278.077301,63.389301 
	C281.953949,63.951187 286.661438,64.633492 291.829529,65.307327 
	C295.839966,67.288841 297.728210,64.990089 299.451202,62.234604 
	C301.547058,63.256050 303.516449,64.113289 305.385742,65.150841 
	C308.226471,66.727554 310.911041,68.424728 313.608215,64.793602 
	C314.325745,63.827610 324.967712,66.183067 326.055359,67.650909 
	C323.612701,68.271889 321.073273,68.526237 317.755249,68.858574 
	C333.509064,74.030388 348.391235,78.916046 363.637024,83.821457 
	C375.733215,90.227989 387.475372,96.597321 399.186066,103.023987 
	C400.623871,103.813049 401.893433,104.908737 403.546082,106.024544 
	C406.086334,108.392387 408.278748,110.643738 410.573273,112.785782 
	C411.865662,113.992340 413.583405,114.811340 414.670349,116.159142 
	C422.879883,126.338852 430.980438,136.606476 439.375946,147.029175 
	C441.627838,151.157120 443.803802,155.025681 445.495483,159.095535 
	C445.993988,160.294769 445.122620,162.063400 444.821136,163.929626 
	C445.894348,164.333450 447.218475,164.831726 448.740356,165.404388 
	C448.509064,166.989944 448.276886,168.581772 447.954590,170.791260 
	C449.206604,170.068771 450.038147,169.588928 450.605194,169.261734 
	C455.927582,173.933258 455.905060,180.165283 455.869232,186.446915 
	C455.861938,187.728806 456.274872,189.086441 456.784607,190.285660 
	C459.503571,196.682648 462.382050,203.012772 465.025177,209.440125 
	C465.445221,210.461594 464.866302,211.861526 464.894989,213.083069 
	C464.954529,215.622314 465.111755,218.159271 465.554169,220.872223 
	C466.706421,224.391769 467.533325,227.736282 468.360260,231.080780 
	C467.992584,231.253448 467.624939,231.426117 467.257263,231.598785 
	C468.507019,232.278534 469.756744,232.958298 471.008453,233.639130 
	C470.737000,236.268570 470.221222,238.870743 470.241058,241.468811 
	C470.352600,256.070312 470.677612,270.670715 470.695770,285.271759 
	C470.698395,287.387512 469.435486,289.503235 468.768127,291.622040 
	C468.381165,292.850555 467.539886,294.156982 467.713593,295.305786 
	C469.015259,303.912994 463.917694,311.163300 462.781830,319.237823 
	C462.683197,319.939056 461.804749,320.530548 461.112244,321.470978 
	C460.000580,322.616943 458.364868,323.371246 458.236908,324.327332 
	C456.756134,335.391907 449.888153,343.697968 444.004181,352.475098 
	C438.833862,360.187683 433.812805,368.066528 427.927368,375.214508 
	C422.245972,382.114685 415.481384,388.116364 409.373138,394.680725 
	C408.652985,395.454620 409.074036,397.290497 408.945709,398.887787 
	C413.765991,399.154144 415.930023,396.170135 418.457550,393.547363 
	C421.236389,390.663849 422.195282,385.452454 427.836945,385.919952 
	C428.216553,385.951355 428.805756,384.151764 429.198212,383.164337 
	C429.779816,381.700989 430.272552,380.202271 431.005859,378.151794 
	C431.691986,379.528015 432.035339,380.216675 432.578613,381.306366 
	C435.269928,378.787842 437.875214,376.349823 440.480530,373.911774 
	C440.982971,374.084351 441.485413,374.256927 441.987854,374.429504 
	C441.541107,375.714569 441.362549,377.196930 440.592285,378.243988 
	C438.943848,380.484772 437.069611,382.577209 435.140991,384.589722 
	C432.442413,387.405731 429.703735,390.196930 426.814972,392.814087 
	C421.080933,398.009003 416.721039,404.445099 409.166168,408.000397 
	C402.004761,411.370483 395.904175,416.994843 389.753510,422.656891 
	C392.174500,421.678558 394.872559,421.101776 396.970093,419.654602 
	C407.856323,412.143646 418.628693,404.465118 429.350220,396.719635 
	C432.334869,394.563446 435.010895,391.980103 438.500916,390.275421 
	C435.929596,400.524323 427.887146,406.145966 420.470032,412.690765 
	C418.986267,413.624054 417.315460,413.996399 416.471069,415.038422 
	C408.068970,425.406952 396.189911,430.330566 384.297943,435.913849 
	C377.425354,438.966492 370.498932,440.605438 364.428925,445.200958 
	C360.616180,448.087402 354.370117,447.758392 349.216766,448.876770 
	C348.409821,449.051910 347.608307,449.252411 346.564209,449.682373 
	C345.620758,450.095276 344.917450,450.266998 343.995850,450.732666 
	C333.725739,452.737885 323.673889,454.449127 313.622070,456.160370 
	C313.666565,456.520142 313.711060,456.879913 313.755554,457.239685 
	C314.862152,457.239685 315.968750,457.239685 317.075348,457.239685 
	C317.095734,457.834045 317.116119,458.428406 317.136505,459.022766 
	C313.393646,459.022766 309.650757,459.022766 305.455627,459.087463 
	C299.321625,459.101654 293.622009,458.759125 287.964478,459.105164 
	C284.303802,459.329041 280.731964,461.007568 277.071411,461.230255 
	C272.130981,461.530792 267.143524,461.058594 261.739990,460.985474 
M302.382111,334.743530 
	C301.933197,335.150360 301.096405,335.553528 301.092529,335.964508 
	C301.011353,344.619934 300.997742,353.276581 301.103394,361.931366 
	C301.108246,362.328583 302.351074,362.710693 303.768829,362.642334 
	C303.844421,355.237427 303.987701,347.832184 303.947235,340.427917 
	C303.937286,338.611481 303.326813,336.798340 302.382111,334.743530 
M370.783020,336.261780 
	C369.978149,336.215332 369.173309,336.168884 368.368439,336.122437 
	C368.300690,336.325256 368.232941,336.528046 368.165222,336.730865 
	C368.837677,337.059814 369.510132,337.388794 370.643463,338.234833 
	C371.797729,341.013153 372.952026,343.791504 374.059937,347.539520 
	C374.075989,348.832153 374.092072,350.124786 374.190765,352.147980 
	C373.023010,354.761780 371.855255,357.375580 370.133972,360.111969 
	C369.310272,360.622650 368.486572,361.133362 367.662903,361.644043 
	C367.839325,361.955719 368.015778,362.267365 368.192200,362.579041 
	C369.125854,362.084076 370.059479,361.589142 371.713440,361.026581 
	C380.649689,355.084991 380.378265,342.694672 370.783020,336.261780 
M351.944763,350.326965 
	C351.939087,349.047272 351.933380,347.767578 351.788483,345.775818 
	C353.292206,342.590942 354.795929,339.406067 356.183044,336.468170 
	C351.472412,336.920837 347.914154,342.264130 347.963867,349.594604 
	C348.011108,356.562317 352.580841,362.216949 357.107422,362.583038 
	C355.557220,359.230927 353.718231,355.254364 351.944763,350.326965 
M203.786057,336.914734 
	C208.463165,336.565582 213.140289,336.216431 217.986206,335.854675 
	C212.650757,333.419189 207.344391,332.857697 201.252747,336.081818 
	C195.283325,340.195831 192.452148,346.581329 194.318466,352.798737 
	C195.581192,357.005341 197.451355,361.030243 203.063782,362.183594 
	C195.847946,350.200623 195.933746,343.646149 203.786057,336.914734 
M225.635147,295.010132 
	C242.491470,289.386780 252.060928,276.754974 257.981537,260.867462 
	C261.256012,252.080673 263.642944,243.066696 263.084534,233.454651 
	C262.602722,225.160782 263.313416,216.759781 262.351685,208.540146 
	C260.764435,194.974274 255.578415,182.593658 246.032959,172.662476 
	C241.675201,168.128616 236.001740,164.859360 230.363052,160.610901 
	C222.963043,156.103470 214.722534,153.896790 206.275238,154.224762 
	C199.441177,154.490082 192.679962,156.631805 185.087006,157.983002 
	C182.891159,158.562088 180.566452,158.853622 178.521683,159.769882 
	C169.481476,163.820786 162.490707,170.358795 157.021530,178.496429 
	C149.570877,189.582336 146.077423,202.027512 144.716156,215.208344 
	C142.894974,232.842575 144.598495,250.040817 152.239822,266.125153 
	C158.340576,278.966644 167.027695,289.741302 181.541672,295.466705 
	C186.789871,296.886108 191.961456,298.944305 197.303070,299.585052 
	C206.879715,300.733826 216.425385,300.270020 225.635147,295.010132 
M316.784912,200.818619 
	C320.963196,212.815781 325.102844,224.826553 329.329895,236.806503 
	C334.225311,250.680573 339.200836,264.526367 344.133728,278.387207 
	C345.135315,281.201538 346.538452,283.963501 350.008759,283.254028 
	C353.382996,282.564270 357.484406,284.863434 359.522247,278.819733 
	C367.872253,254.055923 377.024078,229.562515 386.073334,204.227524 
	C389.077148,195.485977 392.080963,186.744415 395.055481,178.088104 
	C395.055481,217.641678 395.055481,257.083160 395.055481,296.633789 
	C399.717682,296.633789 404.753052,296.633789 409.630310,296.633789 
	C409.630310,249.913071 409.630310,203.562485 409.630310,156.999695 
	C403.443695,156.999695 397.624603,156.889435 391.816956,157.097626 
	C390.724274,157.136795 389.075226,158.221954 388.708527,159.206467 
	C386.638885,164.763229 384.882172,170.436554 382.496429,176.564667 
	C372.577057,204.765869 362.657654,232.967056 352.515564,261.801361 
	C341.452240,231.382874 330.666321,201.727173 319.937988,171.308075 
	C318.635529,167.745544 317.579895,164.062119 315.920380,160.674515 
	C315.158081,159.118408 313.281128,157.182907 311.788788,157.073883 
	C306.046082,156.654419 300.254486,156.903839 294.442261,156.903839 
	C294.442261,203.776657 294.442261,250.422424 294.442261,297.228394 
	C299.556854,297.228394 304.303925,297.228394 308.333435,297.228394 
	C308.333435,257.344299 308.333435,217.767654 308.333435,177.814758 
	C310.919891,184.578583 313.454926,191.207886 316.012573,198.666794 
	C316.214172,199.160049 316.415771,199.653305 316.784912,200.818619 
M387.050354,363.056885 
	C387.427277,362.204834 388.118591,361.357300 388.131012,360.499969 
	C388.223480,354.127808 388.181183,347.753723 388.181183,339.784393 
	C395.610535,348.636414 402.020508,356.273834 408.820068,364.375488 
	C409.279907,354.165405 409.706879,344.685089 410.133850,335.204803 
	C409.359283,335.146851 408.584717,335.088898 407.810150,335.030945 
	C407.810150,342.223511 407.810150,349.416046 407.810150,356.608612 
	C407.321991,356.613525 406.833862,356.618408 406.345703,356.623322 
	C400.096619,349.192474 393.847534,341.761627 387.598480,334.330780 
	C387.185059,334.433960 386.771637,334.537140 386.358215,334.640320 
	C386.358215,344.024902 386.358215,353.409454 387.050354,363.056885 
M227.019379,338.994019 
	C227.021210,346.308502 226.970505,353.623901 227.100342,360.936096 
	C227.114441,361.729584 228.172318,362.504547 228.746063,363.288086 
	C229.169418,362.516174 229.933365,361.755219 229.958649,360.970490 
	C230.084534,357.061768 230.016144,353.146820 230.016144,349.255035 
	C235.996841,349.255035 241.255493,349.255035 246.356277,349.255035 
	C248.504181,353.725555 244.846909,359.174744 249.681366,362.864563 
	C249.681366,353.539825 249.681366,344.215088 249.681366,333.539459 
	C244.785416,337.953186 248.638016,343.175049 246.068985,347.113037 
	C241.026382,347.113037 235.785370,347.113037 229.892502,347.113037 
	C229.892502,342.922394 229.892502,338.898499 229.892502,334.874603 
	C229.365692,334.750519 228.838898,334.626434 228.312088,334.502350 
	C227.881332,335.706909 227.450577,336.911499 227.019379,338.994019 
M284.008423,359.373718 
	C287.551849,351.345001 291.095276,343.316284 294.638702,335.287567 
	C293.989136,334.982483 293.339569,334.677429 292.690002,334.372375 
	C287.161011,341.298370 286.551453,350.720886 281.819885,359.148315 
	C278.563751,351.714386 275.705292,344.949493 272.607544,338.296021 
	C271.896240,336.768188 270.362457,335.623291 269.207184,334.302185 
	C268.720337,334.684998 268.233490,335.067810 267.746643,335.450653 
	C272.068512,345.122437 276.390350,354.794220 281.058594,365.241150 
	C282.263000,362.890015 282.992798,361.465332 284.008423,359.373718 
M184.398682,361.544159 
	C182.450912,361.697327 180.503159,361.850525 178.289642,362.024597 
	C178.289642,357.563995 178.289642,353.463654 178.289642,349.251190 
	C179.881866,349.251190 181.355347,349.299042 182.824158,349.236938 
	C184.137466,349.181396 185.445663,349.004639 186.756134,348.881348 
	C186.728729,348.469788 186.701324,348.058228 186.673920,347.646637 
	C183.948868,347.470215 181.223816,347.293762 178.371735,347.109100 
	C178.371735,343.315308 178.371735,339.759064 178.371735,336.000244 
	C181.318741,336.144562 183.929855,336.272430 186.540970,336.400299 
	C186.531723,335.925018 186.522461,335.449768 186.513199,334.974487 
	C182.711243,334.974487 178.909271,334.974487 175.073792,334.974487 
	C175.073792,344.794312 175.073792,353.895172 175.073792,362.804108 
	C179.330963,362.804108 183.319626,362.804108 187.308273,362.804108 
	C187.300720,362.407379 187.293167,362.010681 187.285614,361.613953 
	C186.568726,361.523315 185.851837,361.432648 184.398682,361.544159 
M158.060242,354.419312 
	C158.060242,348.338043 158.060242,342.256744 158.060242,335.871948 
	C161.914719,336.222351 165.030502,336.505585 169.045013,336.870483 
	C164.347336,333.313904 147.191757,333.584290 144.227524,336.870117 
	C147.845612,336.546967 151.189240,336.248322 154.946182,335.912750 
	C154.946182,341.022980 154.946182,345.492737 154.946182,349.962524 
	C154.946182,354.463898 154.946182,358.965271 154.946182,363.466644 
	C155.771561,363.523499 156.596939,363.580353 157.422318,363.637207 
	C157.634964,360.886963 157.847610,358.136719 158.060242,354.419312 
M339.728271,335.633972 
	C336.841766,333.202240 336.344543,335.142242 336.328674,337.573853 
	C336.279907,345.045380 336.229950,352.519104 336.391266,359.987427 
	C336.415924,361.130341 337.555725,362.249207 338.179779,363.379211 
	C338.798126,362.197601 339.930267,361.025116 339.951508,359.832855 
	C340.090454,352.032501 339.988983,344.227814 339.728271,335.633972 
M312.169159,339.853668 
	C312.139526,345.467163 316.553833,347.550079 320.319977,350.187988 
	C326.154236,354.274475 326.918121,356.468811 323.916107,363.068695 
	C325.848907,361.694489 327.044373,361.226074 327.647400,360.349884 
	C330.294891,356.503387 328.934052,352.441071 324.335236,348.963806 
	C320.195984,345.834076 314.147736,344.163177 314.223328,336.820099 
	C313.623688,337.599670 313.024017,338.379242 312.169159,339.853668 
M361.331451,363.338348 
	C362.288574,363.338348 363.245728,363.338348 364.202850,363.338348 
	C364.131714,362.902374 364.060547,362.466400 363.989410,362.030457 
	C363.023346,362.328705 362.057312,362.626984 361.331451,363.338348 
M363.194733,335.896149 
	C363.325653,335.705933 363.456604,335.515717 363.587555,335.325531 
	C363.197632,335.330872 362.807739,335.336212 362.417816,335.341583 
	C362.558472,335.527496 362.699127,335.713379 363.194733,335.896149 
M358.285858,335.747498 
	C358.440979,335.625519 358.596130,335.503510 358.751251,335.381531 
	C358.573669,335.421112 358.396088,335.460693 358.285858,335.747498 
z"/>
<path fill="#F98268" opacity="1.000000" stroke="none" 
	d="
M226.769913,70.374008 
	C226.277878,70.718361 225.479263,70.849709 224.274414,70.937729 
	C223.926407,50.611244 223.984634,30.328077 224.042053,9.591551 
	C224.352951,11.061581 224.923630,12.983352 224.935684,14.908620 
	C225.039459,31.488001 224.999451,48.068371 225.135941,64.647346 
	C225.151093,66.488747 226.000717,68.323280 226.769913,70.374008 
z"/>
<path fill="#F98268" opacity="1.000000" stroke="none" 
	d="
M260.041382,5.583981 
	C260.341187,7.220065 260.902863,9.309473 260.916870,11.402552 
	C261.030182,28.308205 261.040558,45.214550 261.178009,62.589424 
	C260.863037,61.008251 260.107513,58.960232 260.096191,56.908108 
	C260.002594,39.952171 260.046875,22.995474 260.041382,5.583981 
z"/>
<path fill="#F87F35" opacity="1.000000" stroke="none" 
	d="
M160.134796,411.240112 
	C165.242020,415.500519 169.828812,420.882385 175.469086,424.713074 
	C182.326889,429.370728 187.433197,436.884979 196.476395,438.218658 
	C197.632034,438.389099 199.184586,439.288910 199.628021,440.269318 
	C201.444672,444.285858 204.839432,445.598419 208.977386,446.595428 
	C208.482361,450.831116 207.684418,454.774811 207.020264,458.740906 
	C206.668732,460.840210 206.549896,462.978424 205.816956,465.419128 
	C202.380508,464.202942 199.525818,462.504089 196.513412,461.158203 
	C182.155518,454.743256 168.713242,446.977539 157.758148,435.446533 
	C158.170670,432.237640 158.671661,429.037109 158.974792,425.817902 
	C159.418060,421.110321 159.719437,416.389313 160.134796,411.240112 
z"/>
<path fill="#0D0A09" opacity="1.000000" stroke="none" 
	d="
M157.400269,435.383972 
	C168.713242,446.977539 182.155518,454.743256 196.513412,461.158203 
	C199.525818,462.504089 202.380508,464.202942 205.644806,465.779358 
	C211.810699,468.511749 218.375076,470.109863 222.271347,477.135529 
	C219.043243,476.219513 216.449738,475.483582 213.469223,474.768616 
	C208.922028,472.950623 204.557663,471.465668 200.639816,469.206451 
	C188.708023,462.325836 176.948425,455.146606 164.814850,448.027100 
	C163.834763,447.384735 163.161591,446.798920 162.178513,446.076538 
	C158.945145,443.411499 155.998215,440.909271 153.118576,438.331879 
	C152.561340,437.833099 152.267014,437.040588 151.426483,435.711792 
	C153.665909,435.556091 155.354156,435.438721 157.400269,435.383972 
z"/>
<path fill="#FDA957" opacity="1.000000" stroke="none" 
	d="
M68.241409,358.642609 
	C68.006027,272.610168 68.002769,186.237106 67.994202,99.384224 
	C68.326210,100.832779 68.957390,102.760986 68.958534,104.689560 
	C69.007652,187.586609 69.003860,270.483704 68.978836,353.380768 
	C68.978348,355.021240 68.649300,356.661560 68.241409,358.642609 
z"/>
<path fill="#0D0A09" opacity="1.000000" stroke="none" 
	d="
M130.018646,404.042145 
	C136.275604,406.319794 135.611145,413.470306 140.264450,416.695068 
	C139.975662,417.013031 139.686859,417.330963 139.398056,417.648926 
	C135.732727,414.821655 132.067413,411.994385 128.835098,409.501129 
	C129.167969,407.337311 129.419952,405.699371 130.018646,404.042145 
z"/>
<path fill="#FDA957" opacity="1.000000" stroke="none" 
	d="
M110.009033,391.954041 
	C110.011993,401.598663 110.011993,410.860382 110.011993,420.122070 
	C109.769920,420.121368 109.527855,420.120667 109.285782,420.119965 
	C109.285782,410.014069 109.285782,399.908173 109.285782,389.802277 
	C109.427467,389.789185 109.569160,389.776093 109.710846,389.762970 
	C109.809258,390.365723 109.907661,390.968445 110.009033,391.954041 
z"/>
<path fill="#F74F61" opacity="1.000000" stroke="none" 
	d="
M459.945312,410.402069 
	C459.658234,409.415253 459.115631,407.976624 459.105438,406.534271 
	C459.017181,394.047821 459.010254,381.560669 459.028015,369.073792 
	C459.029633,367.935028 459.372375,366.796722 459.803589,365.320068 
	C460.012543,379.970825 459.974579,394.959686 459.945312,410.402069 
z"/>
<path fill="#FDA957" opacity="1.000000" stroke="none" 
	d="
M184.004929,17.489014 
	C184.313232,18.927032 184.891357,20.830074 184.901260,22.736069 
	C184.962128,34.435604 184.894470,46.135807 184.874283,58.270485 
	C184.616516,54.595909 184.184296,50.489044 184.125900,46.376877 
	C183.991425,36.904419 184.038635,27.429388 184.004929,17.489014 
z"/>
<path fill="#FA7334" opacity="1.000000" stroke="none" 
	d="
M181.579773,90.292343 
	C181.638290,90.568871 181.552917,90.995110 181.259766,91.515808 
	C181.179947,91.220856 181.307907,90.831459 181.579773,90.292343 
z"/>
<path fill="#F74F61" opacity="1.000000" stroke="none" 
	d="
M422.958923,456.417053 
	C422.661377,454.949768 422.108673,453.029633 422.089905,451.104279 
	C421.969177,438.709534 421.965302,426.313690 421.868286,413.450134 
	C422.213593,414.865967 422.947144,416.747620 422.959778,418.634094 
	C423.043304,431.076080 422.971741,443.519073 422.958923,456.417053 
z"/>
<path fill="#0D0A09" opacity="1.000000" stroke="none" 
	d="
M448.848755,380.854065 
	C446.748169,382.847015 444.845154,384.545502 442.942108,386.243988 
	C442.587311,385.896332 442.232513,385.548676 441.877747,385.201019 
	C445.389618,381.027863 448.901489,376.854736 452.413361,372.681610 
	C452.763336,372.897797 453.113281,373.113953 453.463257,373.330139 
	C451.990936,375.739960 450.518616,378.149780 448.848755,380.854065 
z"/>
<path fill="#F72C3B" opacity="1.000000" stroke="none" 
	d="
M461.491516,360.489258 
	C461.511993,360.481476 461.471069,360.497070 461.491516,360.489258 
z"/>
<path fill="#F98268" opacity="1.000000" stroke="none" 
	d="
M365.934814,81.377129 
	C365.627289,80.563667 365.072144,79.299011 365.066772,78.032021 
	C364.985535,58.890579 364.968506,39.748829 364.973541,20.607166 
	C364.973785,19.637930 365.310150,18.668783 365.814148,17.450062 
	C366.073151,38.441971 366.008026,59.683411 365.934814,81.377129 
z"/>
<path fill="#F6413A" opacity="1.000000" stroke="none" 
	d="
M383.018829,176.070160 
	C384.882172,170.436554 386.638885,164.763229 388.708527,159.206467 
	C389.075226,158.221954 390.724274,157.136795 391.816956,157.097626 
	C397.624603,156.889435 403.443695,156.999695 409.630310,156.999695 
	C409.630310,203.562485 409.630310,249.913071 409.630310,296.633789 
	C404.753052,296.633789 399.717682,296.633789 395.055481,296.633789 
	C395.055481,257.083160 395.055481,217.641678 395.055481,178.088104 
	C392.080963,186.744415 389.077148,195.485977 385.639862,204.421478 
	C384.803314,202.738693 384.148590,200.876190 384.041260,198.982666 
	C383.608582,191.350372 383.344940,183.708496 383.018829,176.070160 
z"/>
<path fill="#F87F35" opacity="1.000000" stroke="none" 
	d="
M181.017502,294.957825 
	C167.027695,289.741302 158.340576,278.966644 152.239822,266.125153 
	C144.598495,250.040817 142.894974,232.842575 144.716156,215.208344 
	C146.077423,202.027512 149.570877,189.582336 157.021530,178.496429 
	C162.490707,170.358795 169.481476,163.820786 178.521683,159.769882 
	C180.566452,158.853622 182.891159,158.562088 185.722626,158.305573 
	C186.579910,163.327621 186.801605,168.027130 186.726517,172.919800 
	C172.478302,181.152161 165.789185,194.134277 163.575455,209.256775 
	C159.776352,235.209595 160.884430,260.161072 183.051056,279.360107 
	C182.295471,284.829254 181.656479,289.893555 181.017502,294.957825 
z"/>
<path fill="#F35939" opacity="1.000000" stroke="none" 
	d="
M315.989990,197.837189 
	C313.454926,191.207886 310.919891,184.578583 308.333435,177.814758 
	C308.333435,217.767654 308.333435,257.344299 308.333435,297.228394 
	C304.303925,297.228394 299.556854,297.228394 294.442261,297.228394 
	C294.442261,250.422424 294.442261,203.776657 294.442261,156.903839 
	C300.254486,156.903839 306.046082,156.654419 311.788788,157.073883 
	C313.281128,157.182907 315.158081,159.118408 315.920380,160.674515 
	C317.579895,164.062119 318.635529,167.745544 319.722137,171.927872 
	C318.960968,173.396317 318.415680,174.244965 317.674072,175.441681 
	C317.338104,178.923019 317.261475,182.060684 317.043396,185.188477 
	C316.749237,189.408691 316.346252,193.621307 315.989990,197.837189 
z"/>
<path fill="#F4503A" opacity="1.000000" stroke="none" 
	d="
M317.870361,175.093628 
	C318.415680,174.244965 318.960968,173.396317 319.693359,172.309570 
	C330.666321,201.727173 341.452240,231.382874 352.515564,261.801361 
	C362.657654,232.967056 372.577057,204.765869 382.757629,176.317413 
	C383.344940,183.708496 383.608582,191.350372 384.041260,198.982666 
	C384.148590,200.876190 384.803314,202.738693 385.543579,204.792511 
	C377.024078,229.562515 367.872253,254.055923 359.522247,278.819733 
	C357.484406,284.863434 353.382996,282.564270 350.008759,283.254028 
	C346.538452,283.963501 345.135315,281.201538 344.133728,278.387207 
	C339.200836,264.526367 334.225311,250.680573 329.329895,236.806503 
	C325.102844,224.826553 320.963196,212.815781 316.975952,200.229736 
	C317.401459,191.458450 317.635925,183.276031 317.870361,175.093628 
z"/>
<path fill="#F76936" opacity="1.000000" stroke="none" 
	d="
M230.925018,161.016525 
	C236.001740,164.859360 241.675201,168.128616 246.032959,172.662476 
	C255.578415,182.593658 260.764435,194.974274 262.351685,208.540146 
	C263.313416,216.759781 262.602722,225.160782 263.084534,233.454651 
	C263.642944,243.066696 261.256012,252.080673 257.981537,260.867462 
	C252.060928,276.754974 242.491470,289.386780 225.317307,294.482849 
	C224.999557,292.014343 225.277008,290.022034 224.931320,288.144470 
	C224.472183,285.650787 223.526962,283.246613 222.953079,280.513000 
	C230.640823,275.472839 236.710846,269.114197 239.624878,260.824188 
	C249.948624,231.454681 251.272354,202.998718 229.155945,177.346130 
	C229.867371,171.666931 230.396194,166.341736 230.925018,161.016525 
z"/>
<path fill="#F67335" opacity="1.000000" stroke="none" 
	d="
M230.644043,160.813721 
	C230.396194,166.341736 229.867371,171.666931 228.858856,177.218063 
	C215.532867,167.639572 201.627304,167.121582 187.023285,172.726624 
	C186.801605,168.027130 186.579910,163.327621 186.122345,158.284668 
	C192.679962,156.631805 199.441177,154.490082 206.275238,154.224762 
	C214.722534,153.896790 222.963043,156.103470 230.644043,160.813721 
z"/>
<path fill="#F67335" opacity="1.000000" stroke="none" 
	d="
M222.790573,280.804016 
	C223.526962,283.246613 224.472183,285.650787 224.931320,288.144470 
	C225.277008,290.022034 224.999557,292.014343 224.999786,294.411316 
	C216.425385,300.270020 206.879715,300.733826 197.303070,299.585052 
	C191.961456,298.944305 186.789871,296.886108 181.279587,295.212280 
	C181.656479,289.893555 182.295471,284.829254 183.397278,279.409485 
	C193.757385,284.879883 204.189453,286.575684 215.288818,283.126038 
	C217.788513,282.349121 220.289948,281.577881 222.790573,280.804016 
z"/>
<path fill="#F3373C" opacity="1.000000" stroke="none" 
	d="
M386.704285,362.925476 
	C386.358215,353.409454 386.358215,344.024902 386.358215,334.640320 
	C386.771637,334.537140 387.185059,334.433960 387.598480,334.330780 
	C393.847534,341.761627 400.096619,349.192474 406.345703,356.623322 
	C406.833862,356.618408 407.321991,356.613525 407.810150,356.608612 
	C407.810150,349.416046 407.810150,342.223511 407.810150,335.030945 
	C408.584717,335.088898 409.359283,335.146851 410.133850,335.204803 
	C409.706879,344.685089 409.279907,354.165405 408.820068,364.375488 
	C402.020508,356.273834 395.610535,348.636414 388.181183,339.784393 
	C388.181183,347.753723 388.223480,354.127808 388.131012,360.499969 
	C388.118591,361.357300 387.427277,362.204834 386.704285,362.925476 
z"/>
<path fill="#E96D40" opacity="1.000000" stroke="none" 
	d="
M227.019592,338.555054 
	C227.450577,336.911499 227.881332,335.706909 228.312088,334.502350 
	C228.838898,334.626434 229.365692,334.750519 229.892502,334.874603 
	C229.892502,338.898499 229.892502,342.922394 229.892502,347.113037 
	C235.785370,347.113037 241.026382,347.113037 246.068985,347.113037 
	C248.638016,343.175049 244.785416,337.953186 249.681366,333.539459 
	C249.681366,344.215088 249.681366,353.539825 249.681366,362.864563 
	C244.846909,359.174744 248.504181,353.725555 246.356277,349.255035 
	C241.255493,349.255035 235.996841,349.255035 230.016144,349.255035 
	C230.016144,353.146820 230.084534,357.061768 229.958649,360.970490 
	C229.933365,361.755219 229.169418,362.516174 228.746063,363.288086 
	C228.172318,362.504547 227.114441,361.729584 227.100342,360.936096 
	C226.970505,353.623901 227.021210,346.308502 227.019592,338.555054 
z"/>
<path fill="#DC673C" opacity="1.000000" stroke="none" 
	d="
M283.865540,359.707184 
	C282.992798,361.465332 282.263000,362.890015 281.058594,365.241150 
	C276.390350,354.794220 272.068512,345.122437 267.746643,335.450653 
	C268.233490,335.067810 268.720337,334.684998 269.207184,334.302185 
	C270.362457,335.623291 271.896240,336.768188 272.607544,338.296021 
	C275.705292,344.949493 278.563751,351.714386 281.819885,359.148315 
	C286.551453,350.720886 287.161011,341.298370 292.690002,334.372375 
	C293.339569,334.677429 293.989136,334.982483 294.638702,335.287567 
	C291.095276,343.316284 287.551849,351.345001 283.865540,359.707184 
z"/>
<path fill="#DC673C" opacity="1.000000" stroke="none" 
	d="
M184.766815,361.443085 
	C185.851837,361.432648 186.568726,361.523315 187.285614,361.613953 
	C187.293167,362.010681 187.300720,362.407379 187.308273,362.804108 
	C183.319626,362.804108 179.330963,362.804108 175.073792,362.804108 
	C175.073792,353.895172 175.073792,344.794312 175.073792,334.974487 
	C178.909271,334.974487 182.711243,334.974487 186.513199,334.974487 
	C186.522461,335.449768 186.531723,335.925018 186.540970,336.400299 
	C183.929855,336.272430 181.318741,336.144562 178.371735,336.000244 
	C178.371735,339.759064 178.371735,343.315308 178.371735,347.109100 
	C181.223816,347.293762 183.948868,347.470215 186.673920,347.646637 
	C186.701324,348.058228 186.728729,348.469788 186.756134,348.881348 
	C185.445663,349.004639 184.137466,349.181396 182.824158,349.236938 
	C181.355347,349.299042 179.881866,349.251190 178.289642,349.251190 
	C178.289642,353.463654 178.289642,357.563995 178.289642,362.024597 
	C180.503159,361.850525 182.450912,361.697327 184.766815,361.443085 
z"/>
<path fill="#DC673C" opacity="1.000000" stroke="none" 
	d="
M158.060242,354.902893 
	C157.847610,358.136719 157.634964,360.886963 157.422318,363.637207 
	C156.596939,363.580353 155.771561,363.523499 154.946182,363.466644 
	C154.946182,358.965271 154.946182,354.463898 154.946182,349.962524 
	C154.946182,345.492737 154.946182,341.022980 154.946182,335.912750 
	C151.189240,336.248322 147.845612,336.546967 144.227524,336.870117 
	C147.191757,333.584290 164.347336,333.313904 169.045013,336.870483 
	C165.030502,336.505585 161.914719,336.222351 158.060242,335.871948 
	C158.060242,342.256744 158.060242,348.338043 158.060242,354.902893 
z"/>
<path fill="#C45141" opacity="1.000000" stroke="none" 
	d="
M339.847168,336.029266 
	C339.988983,344.227814 340.090454,352.032501 339.951508,359.832855 
	C339.930267,361.025116 338.798126,362.197601 338.179779,363.379211 
	C337.555725,362.249207 336.415924,361.130341 336.391266,359.987427 
	C336.229950,352.519104 336.279907,345.045380 336.328674,337.573853 
	C336.344543,335.142242 336.841766,333.202240 339.847168,336.029266 
z"/>
<path fill="#E04943" opacity="1.000000" stroke="none" 
	d="
M312.296753,339.506226 
	C313.024017,338.379242 313.623688,337.599670 314.223328,336.820099 
	C314.147736,344.163177 320.195984,345.834076 324.335236,348.963806 
	C328.934052,352.441071 330.294891,356.503387 327.647400,360.349884 
	C327.044373,361.226074 325.848907,361.694489 323.916107,363.068695 
	C326.918121,356.468811 326.154236,354.274475 320.319977,350.187988 
	C316.553833,347.550079 312.139526,345.467163 312.296753,339.506226 
z"/>
<path fill="#E96D40" opacity="1.000000" stroke="none" 
	d="
M203.037643,337.043701 
	C195.933746,343.646149 195.847946,350.200623 203.063782,362.183594 
	C197.451355,361.030243 195.581192,357.005341 194.318466,352.798737 
	C192.452148,346.581329 195.283325,340.195831 201.793320,336.181305 
	C202.568481,336.535095 202.803055,336.789398 203.037643,337.043701 
z"/>
<path fill="#E04943" opacity="1.000000" stroke="none" 
	d="
M351.879242,351.277802 
	C353.718231,355.254364 355.557220,359.230927 357.107422,362.583038 
	C352.580841,362.216949 348.011108,356.562317 347.963867,349.594604 
	C347.914154,342.264130 351.472412,336.920837 356.183044,336.468170 
	C354.795929,339.406067 353.292206,342.590942 351.638458,346.434326 
	C351.618713,348.487854 351.748962,349.882812 351.879242,351.277802 
z"/>
<path fill="#E04943" opacity="1.000000" stroke="none" 
	d="
M374.106293,346.569824 
	C372.952026,343.791504 371.797729,341.013153 370.665619,337.748413 
	C370.852692,337.106293 371.017639,336.950592 371.182617,336.794891 
	C380.378265,342.694672 380.649689,355.084991 371.277161,360.784058 
	C370.789734,360.357513 370.738586,360.173431 370.687500,359.989380 
	C371.855255,357.375580 373.023010,354.761780 374.360779,351.476929 
	C374.389252,349.393860 374.247772,347.981842 374.106293,346.569824 
z"/>
<path fill="#F4503A" opacity="1.000000" stroke="none" 
	d="
M303.017334,363.099823 
	C302.351074,362.710693 301.108246,362.328583 301.103394,361.931366 
	C300.997742,353.276581 301.011353,344.619934 301.092529,335.964508 
	C301.096405,335.553528 301.933197,335.150360 302.687317,335.333435 
	C303.000793,344.982178 303.009064,354.041016 303.017334,363.099823 
z"/>
<path fill="#DC673C" opacity="1.000000" stroke="none" 
	d="
M203.411850,336.979218 
	C202.803055,336.789398 202.568481,336.535095 202.131348,336.117981 
	C207.344391,332.857697 212.650757,333.419189 217.986206,335.854675 
	C213.140289,336.216431 208.463165,336.565582 203.411850,336.979218 
z"/>
<path fill="#E96D40" opacity="1.000000" stroke="none" 
	d="
M303.393066,362.871094 
	C303.009064,354.041016 303.000793,344.982178 302.992462,335.453522 
	C303.326813,336.798340 303.937286,338.611481 303.947235,340.427917 
	C303.987701,347.832184 303.844421,355.237427 303.393066,362.871094 
z"/>
<path fill="#F98268" opacity="1.000000" stroke="none" 
	d="
M317.674072,175.441681 
	C317.635925,183.276031 317.401459,191.458450 316.892181,199.893707 
	C316.415771,199.653305 316.214172,199.160049 316.001282,198.251984 
	C316.346252,193.621307 316.749237,189.408691 317.043396,185.188477 
	C317.261475,182.060684 317.338104,178.923019 317.674072,175.441681 
z"/>
<path fill="#050404" opacity="1.000000" stroke="none" 
	d="
M361.211365,363.131775 
	C362.057312,362.626984 363.023346,362.328705 363.989410,362.030457 
	C364.060547,362.466400 364.131714,362.902374 364.202850,363.338348 
	C363.245728,363.338348 362.288574,363.338348 361.211365,363.131775 
z"/>
<path fill="#050404" opacity="1.000000" stroke="none" 
	d="
M370.410706,360.050659 
	C370.738586,360.173431 370.789734,360.357513 370.916992,360.817871 
	C370.059479,361.589142 369.125854,362.084076 368.192200,362.579041 
	C368.015778,362.267365 367.839325,361.955719 367.662903,361.644043 
	C368.486572,361.133362 369.310272,360.622650 370.410706,360.050659 
z"/>
<path fill="#050404" opacity="1.000000" stroke="none" 
	d="
M363.017242,335.897705 
	C362.699127,335.713379 362.558472,335.527496 362.417816,335.341583 
	C362.807739,335.336212 363.197632,335.330872 363.587555,335.325531 
	C363.456604,335.515717 363.325653,335.705933 363.017242,335.897705 
z"/>
<path fill="#050404" opacity="1.000000" stroke="none" 
	d="
M351.911987,350.802368 
	C351.748962,349.882812 351.618713,348.487854 351.708069,346.790375 
	C351.933380,347.767578 351.939087,349.047272 351.911987,350.802368 
z"/>
<path fill="#050404" opacity="1.000000" stroke="none" 
	d="
M374.083130,347.054688 
	C374.247772,347.981842 374.389252,349.393860 374.319458,351.111633 
	C374.092072,350.124786 374.075989,348.832153 374.083130,347.054688 
z"/>
<path fill="#050404" opacity="1.000000" stroke="none" 
	d="
M358.252197,335.623901 
	C358.396088,335.460693 358.573669,335.421112 358.751251,335.381531 
	C358.596130,335.503510 358.440979,335.625519 358.252197,335.623901 
z"/>
<path fill="#E04943" opacity="1.000000" stroke="none" 
	d="
M370.435181,337.489868 
	C369.510132,337.388794 368.837677,337.059814 368.165222,336.730865 
	C368.232941,336.528046 368.300690,336.325256 368.368439,336.122437 
	C369.173309,336.168884 369.978149,336.215332 370.982819,336.528320 
	C371.017639,336.950592 370.852692,337.106293 370.435181,337.489868 
z"/>
<path fill="#020101" opacity="1.000000" stroke="none" 
	d="
M222.953079,280.513031 
	C220.289948,281.577881 217.788513,282.349121 215.288818,283.126038 
	C204.189453,286.575684 193.757385,284.879883 183.513885,279.004639 
	C160.884430,260.161072 159.776352,235.209595 163.575455,209.256775 
	C165.789185,194.134277 172.478302,181.152161 186.726517,172.919800 
	C201.627304,167.121582 215.532867,167.639572 228.676254,177.572052 
	C251.272354,202.998718 249.948624,231.454681 239.624878,260.824188 
	C236.710846,269.114197 230.640823,275.472839 222.953079,280.513031 
z"/>
</svg>